<svg width="67" height="66" viewBox="0 0 67 66" fill="none" xmlns="http://www.w3.org/2000/svg">
<path d="M22.8746 16.8897L16.6103 16.8897L16.6103 23.154C16.6103 27.5899 20.222 31.2016 24.658 31.2016L30.9223 31.2016L30.9223 24.9373C30.9223 20.5014 27.3256 16.9046 22.8746 16.8897Z" fill="#5FC3AF"/>
<path d="M42.357 31.2165L36.0927 31.2165V24.9522C36.0927 20.5163 39.7044 16.9046 44.1403 16.9046L50.4046 16.9046L50.4046 23.1689C50.4046 27.6048 46.7929 31.2165 42.357 31.2165Z" fill="#5FC3AF"/>
<path d="M22.8746 49.1103L16.6103 49.1103L16.6103 42.846C16.6103 38.4101 20.222 34.7984 24.658 34.7984H30.9223L30.9223 41.0627C30.9223 45.4986 27.3256 49.0954 22.8746 49.1103Z" fill="#5FC3AF"/>
<path d="M42.357 34.7835L36.0927 34.7835V41.0478C36.0927 45.4837 39.7044 49.0954 44.1403 49.0954L50.4046 49.0954L50.4046 42.8311C50.4046 38.3952 46.7929 34.7835 42.357 34.7835Z" fill="#5FC3AF"/>
</svg>
