<svg width="27" height="18" viewBox="0 0 27 18" fill="none" xmlns="http://www.w3.org/2000/svg">
<path d="M1 13H25.5" stroke="#087E59" stroke-width="2"/>
<path d="M13 9L25 9" stroke="#087E59" stroke-width="2"/>
<path d="M14 5H25.5" stroke="#087E59" stroke-width="2"/>
<mask id="path-4-inside-1" fill="white">
<rect width="27" height="18" rx="2"/>
</mask>
<rect width="27" height="18" rx="2" stroke="#087E59" stroke-width="5" mask="url(#path-4-inside-1)"/>
<rect x="1" y="1" width="12" height="9" rx="1" stroke="#087E59" stroke-width="2"/>
<path d="M6.66713 4.02447C6.7719 3.70201 7.2281 3.70201 7.33287 4.02447L7.59496 4.8311C7.64182 4.97531 7.7762 5.07295 7.92783 5.07295H8.77598C9.11503 5.07295 9.256 5.50681 8.98171 5.7061L8.29554 6.20463C8.17287 6.29376 8.12154 6.45174 8.16839 6.59595L8.43049 7.40258C8.53526 7.72504 8.16619 7.99319 7.89189 7.79389L7.20572 7.29537C7.08305 7.20624 6.91695 7.20624 6.79428 7.29537L6.10811 7.79389C5.83381 7.99319 5.46474 7.72504 5.56951 7.40258L5.83161 6.59595C5.87846 6.45174 5.82713 6.29376 5.70446 6.20463L5.0183 5.7061C4.744 5.50681 4.88497 5.07295 5.22402 5.07295H6.07217C6.2238 5.07295 6.35818 4.97531 6.40504 4.8311L6.66713 4.02447Z" fill="#007C58"/>
</svg>
