<svg width="29" height="27" viewBox="0 0 29 27" fill="none" xmlns="http://www.w3.org/2000/svg">
<path d="M25.5 6.25H22.5025C22.6537 5.82375 22.75 5.35625 22.75 4.875C22.75 2.5925 20.9075 0.75 18.625 0.75C17.1812 0.75 15.93 1.4925 15.1875 2.60625L14.5 3.5275L13.8125 2.5925C13.07 1.4925 11.8188 0.75 10.375 0.75C8.0925 0.75 6.25 2.5925 6.25 4.875C6.25 5.35625 6.34625 5.82375 6.4975 6.25H3.5C1.97375 6.25 0.76375 7.47375 0.76375 9L0.75 24.125C0.75 25.6513 1.97375 26.875 3.5 26.875H25.5C27.0263 26.875 28.25 25.6513 28.25 24.125V9C28.25 7.47375 27.0263 6.25 25.5 6.25ZM18.625 3.5C19.3813 3.5 20 4.11875 20 4.875C20 5.63125 19.3813 6.25 18.625 6.25C17.8687 6.25 17.25 5.63125 17.25 4.875C17.25 4.11875 17.8687 3.5 18.625 3.5ZM10.375 3.5C11.1313 3.5 11.75 4.11875 11.75 4.875C11.75 5.63125 11.1313 6.25 10.375 6.25C9.61875 6.25 9 5.63125 9 4.875C9 4.11875 9.61875 3.5 10.375 3.5ZM25.5 24.125H3.5V21.375H25.5V24.125ZM25.5 17.25H3.5V9H10.485L7.625 12.8912L9.8525 14.5L13.125 10.045L14.5 8.175L15.875 10.045L19.1475 14.5L21.375 12.8912L18.515 9H25.5V17.25Z" fill="#087E59"/>
</svg>
