<svg width="30" height="30" viewBox="0 0 30 30" fill="none" xmlns="http://www.w3.org/2000/svg">
<g clip-path="url(#clip0)">
<path d="M4.61399 23.1028C4.56656 19.8527 4.25825 15.5273 5.44405 12.4206C5.82351 11.4647 6.29783 10.5327 6.91445 9.72016C8.05282 8.14291 9.59436 6.82854 11.3493 5.99213C13.5549 4.94063 15.9977 4.72555 18.3693 4.51047C20.3615 4.31929 22.3773 4.03252 24.2746 3.38729C25.4604 2.98103 26.6699 2.28799 27.2391 1.66666C27.5949 3.41118 27.4763 5.20351 27.2391 6.97193C26.7174 10.7956 25.5553 14.7387 23.1837 17.8215C21.3101 20.259 18.6776 22.0752 15.6894 22.7683C14.6933 23.0072 13.6735 23.1267 12.6537 23.1267H12.3454H4.61399V23.1028Z" fill="#087E59"/>
<path d="M3.33331 27.5C3.61791 24.9429 4.37682 22.4576 5.53891 20.1395C6.10809 18.9685 6.81957 17.8692 7.57849 16.8177C8.36112 15.7663 9.23861 14.7864 10.211 13.9022C12.1557 12.1338 14.551 10.8194 17.0175 10.1025C19.4365 9.36169 21.8318 8.90763 23.8003 7.28259C23.1362 8.38188 22.0927 9.2422 20.9781 9.88743C19.8634 10.5327 18.6776 11.0345 17.5392 11.5364C15.2862 12.4684 13.2941 13.7588 11.4916 15.36C10.5904 16.1486 9.76037 17.0328 9.00145 17.9648C8.21882 18.8729 7.53106 19.8766 6.84329 20.9042C5.51519 22.9594 4.37682 25.158 3.33331 27.5Z" fill="#A7CEC6"/>
</g>
<defs>
<clipPath id="clip0">
<rect width="24.1667" height="25.8333" fill="white" transform="translate(3.33331 1.66666)"/>
</clipPath>
</defs>
</svg>
